<svg width="80" height="110" viewBox="0 0 80 110" fill="none" xmlns="http://www.w3.org/2000/svg">
<path opacity="0.5" d="M10 5V0.5V5ZM70 5V0.5V5ZM75 105L72.3844 108.662C73.7561 109.642 75.5603 109.773 77.0591 109.001C78.5579 108.23 79.5 106.686 79.5 105H75ZM57.5 92.5L60.1156 88.8382C58.5509 87.7206 56.4491 87.7206 54.8844 88.8382L57.5 92.5ZM40 105L37.3844 108.662C38.9491 109.779 41.0509 109.779 42.6156 108.662L40 105ZM22.5 92.5L25.1156 88.8382C23.5509 87.7206 21.4491 87.7206 19.8844 88.8382L22.5 92.5ZM5 105H0.5C0.5 106.686 1.44206 108.23 2.94088 109.001C4.4397 109.773 6.24391 109.642 7.61557 108.662L5 105ZM25 45.5C22.5147 45.5 20.5 47.5147 20.5 50C20.5 52.4853 22.5147 54.5 25 54.5V45.5ZM55 54.5C57.4853 54.5 59.5 52.4853 59.5 50C59.5 47.5147 57.4853 45.5 55 45.5V54.5ZM25 65.5C22.5147 65.5 20.5 67.5147 20.5 70C20.5 72.4853 22.5147 74.5 25 74.5V65.5ZM55 74.5C57.4853 74.5 59.5 72.4853 59.5 70C59.5 67.5147 57.4853 65.5 55 65.5V74.5ZM25 25.5C22.5147 25.5 20.5 27.5147 20.5 30C20.5 32.4853 22.5147 34.5 25 34.5V25.5ZM55 34.5C57.4853 34.5 59.5 32.4853 59.5 30C59.5 27.5147 57.4853 25.5 55 25.5V34.5ZM9.5 10C9.5 9.86739 9.55268 9.74022 9.64645 9.64645L3.28249 3.28249C1.50089 5.06408 0.5 7.48044 0.5 10H9.5ZM9.64645 9.64645C9.74022 9.55268 9.86739 9.5 10 9.5V0.5C7.48044 0.5 5.06408 1.50089 3.28249 3.28249L9.64645 9.64645ZM10 9.5H70V0.5H10V9.5ZM70 9.5C70.1326 9.5 70.2598 9.55268 70.3536 9.64645L76.7175 3.28249C74.9359 1.50089 72.5196 0.5 70 0.5V9.5ZM70.3536 9.64645C70.4473 9.74021 70.5 9.86738 70.5 10H79.5C79.5 7.48045 78.4991 5.06409 76.7175 3.28249L70.3536 9.64645ZM70.5 10V105H79.5V10H70.5ZM77.6156 101.338L60.1156 88.8382L54.8844 96.1618L72.3844 108.662L77.6156 101.338ZM54.8844 88.8382L37.3844 101.338L42.6156 108.662L60.1156 96.1618L54.8844 88.8382ZM42.6156 101.338L25.1156 88.8382L19.8844 96.1618L37.3844 108.662L42.6156 101.338ZM19.8844 88.8382L2.38443 101.338L7.61557 108.662L25.1156 96.1618L19.8844 88.8382ZM9.5 105V10H0.5V105H9.5ZM25 54.5H55V45.5H25V54.5ZM25 74.5H55V65.5H25V74.5ZM25 34.5H55V25.5H25V34.5Z" fill="#65FFDC"/>
</svg>
