<svg width="110" height="110" viewBox="0 0 110 110" fill="none" xmlns="http://www.w3.org/2000/svg">
<path opacity="0.5" d="M70.9602 41.0277C72.055 43.2588 74.7513 44.18 76.9824 43.0852C79.2135 41.9903 80.1347 39.2941 79.0398 37.063L70.9602 41.0277ZM52.5425 27.6103L52.1623 23.1264L52.1615 23.1265L52.5425 27.6103ZM30.085 57.3428L34.5739 57.0274L34.5739 57.0274L30.085 57.3428ZM78.8353 73.8767C80.1353 71.7586 79.4721 68.9876 77.3539 67.6876C75.2358 66.3876 72.4648 67.0508 71.1648 69.1689L78.8353 73.8767ZM100.5 55C100.5 80.129 80.129 100.5 55 100.5V109.5C85.0995 109.5 109.5 85.0995 109.5 55H100.5ZM55 100.5C29.871 100.5 9.5 80.129 9.5 55H0.5C0.5 85.0995 24.9005 109.5 55 109.5V100.5ZM9.5 55C9.5 29.871 29.871 9.5 55 9.5V0.5C24.9005 0.5 0.5 24.9005 0.5 55H9.5ZM55 9.5C80.129 9.5 100.5 29.871 100.5 55H109.5C109.5 24.9005 85.0995 0.5 55 0.5V9.5ZM79.0398 37.063C76.2216 31.3197 67.9813 21.7852 52.1623 23.1264L52.9227 32.0942C64.0537 31.1505 69.2884 37.6209 70.9602 41.0277L79.0398 37.063ZM52.1615 23.1265C35.811 24.5158 24.3301 39.6454 25.5961 57.6583L34.5739 57.0274C33.5899 43.0253 42.324 32.9948 52.9235 32.0942L52.1615 23.1265ZM25.5961 57.6583C26.8887 76.0532 41.2251 87.0003 54.7875 87.0003V78.0003C45.8949 78.0003 35.5314 70.6525 34.5739 57.0274L25.5961 57.6583ZM54.7875 87.0003C62.8289 87.0003 68.8537 83.7064 72.7891 80.5004C74.753 78.9005 76.2265 77.3011 77.2193 76.088C77.7175 75.4791 78.1002 74.9607 78.3682 74.5787C78.5024 74.3874 78.6083 74.2296 78.686 74.1109C78.7249 74.0516 78.7567 74.0019 78.7816 73.9627C78.794 73.943 78.8047 73.926 78.8136 73.9117C78.8181 73.9045 78.8222 73.898 78.8258 73.8922C78.8276 73.8892 78.8292 73.8865 78.8308 73.8839C78.8316 73.8827 78.8327 73.8809 78.8331 73.8802C78.8342 73.8785 78.8353 73.8767 75 71.5228C71.1648 69.1689 71.1658 69.1673 71.1667 69.1657C71.167 69.1652 71.168 69.1637 71.1686 69.1627C71.1697 69.1608 71.1708 69.1591 71.1718 69.1575C71.1738 69.1543 71.1753 69.1518 71.1765 69.1499C71.1789 69.1461 71.1797 69.1448 71.179 69.146C71.1775 69.1483 71.1699 69.1603 71.1561 69.1813C71.1285 69.2234 71.0765 69.3015 71.0001 69.4104C70.847 69.6286 70.5981 69.9679 70.2542 70.3882C69.5626 71.2333 68.5095 72.3783 67.1047 73.5228C64.3026 75.8055 60.2211 78.0003 54.7875 78.0003V87.0003Z" fill="#65FFDC"/>
</svg>
