<svg width="110" height="100" viewBox="0 0 110 100" fill="none" xmlns="http://www.w3.org/2000/svg">
<path opacity="0.5" d="M85.2251 0C85.906 0.000425506 86.5782 0.153822 87.1918 0.448857C87.8055 0.743893 88.3451 1.17303 88.7706 1.70457L89.1115 2.18639L108.43 34.0049C108.874 34.7353 109.103 35.576 109.091 36.4307C109.079 37.2853 108.826 38.1193 108.362 38.8368L108.012 39.3004L58.0112 98.392C57.6146 98.8603 57.1274 99.2434 56.5788 99.5183C56.0303 99.7932 55.4317 99.9542 54.8193 99.9916C54.2068 100.029 53.5931 99.9419 53.0152 99.7358C52.4373 99.5296 51.9071 99.2086 51.4566 98.792L51.0747 98.392L1.07416 39.3004C0.522618 38.648 0.166111 37.8533 0.0455162 37.0076C-0.0750787 36.1618 0.0451204 35.2992 0.392331 34.5186L0.655971 34.0049L19.9744 2.18639C20.3275 1.60402 20.807 1.10845 21.3774 0.736306C21.9478 0.364161 22.5946 0.124954 23.2699 0.0363636L23.8608 0H85.2251ZM70.5204 40.9096H38.561L54.5384 80.3282L70.5204 40.9096ZM94.7434 40.9096H80.3296L67.0704 73.6145L94.7434 40.9096ZM28.7517 40.9096H14.3379L42.0064 73.6054L28.7517 40.9096ZM34.8791 9.09101H26.4108L12.6107 31.8185H28.3836L34.8791 9.09101ZM64.7522 9.09101H44.3292L37.8337 31.8185H71.2477L64.7522 9.09101ZM82.6705 9.09101H74.2023L80.6978 31.8185H96.4707L82.6705 9.09101Z" fill="#65FFDC"/>
</svg>
