<svg width="100" height="106" viewBox="0 0 100 106" fill="none" xmlns="http://www.w3.org/2000/svg">
<path opacity="0.5" d="M96.0768 86.3824C93.5683 80.4406 89.9281 75.0434 85.3588 70.4916C80.8034 65.9265 75.4071 62.2869 69.468 59.7735C69.4148 59.7469 69.3616 59.7336 69.3084 59.7071C77.5929 53.723 82.9785 43.9758 82.9785 32.9785C82.9785 14.7605 68.218 0 50 0C31.782 0 17.0215 14.7605 17.0215 32.9785C17.0215 43.9758 22.4071 53.723 30.6916 59.7203C30.6384 59.7469 30.5852 59.7602 30.532 59.7868C24.5746 62.3001 19.2289 65.9038 14.6412 70.5049C10.0762 75.0602 6.43652 80.4565 3.92318 86.3957C1.45408 92.2102 0.122432 98.4441 0.000332524 104.76C-0.00321672 104.902 0.0216771 105.043 0.0735478 105.175C0.125419 105.307 0.203216 105.428 0.302357 105.529C0.401498 105.631 0.519976 105.712 0.650809 105.767C0.781643 105.822 0.922186 105.85 1.06416 105.85H9.04283C9.62793 105.85 10.0934 105.385 10.1066 104.813C10.3726 94.5473 14.4949 84.933 21.7821 77.6458C29.3219 70.1059 39.3352 65.957 50 65.957C60.6648 65.957 70.6781 70.1059 78.2179 77.6458C85.5051 84.933 89.6274 94.5473 89.8934 104.813C89.9067 105.398 90.3721 105.85 90.9572 105.85H98.9358C99.0778 105.85 99.2184 105.822 99.3492 105.767C99.48 105.712 99.5985 105.631 99.6976 105.529C99.7968 105.428 99.8746 105.307 99.9265 105.175C99.9783 105.043 100.003 104.902 99.9997 104.76C99.8667 98.4036 98.5502 92.2201 96.0768 86.3824ZM50 55.8507C43.8963 55.8507 38.1517 53.4704 33.8299 49.1486C29.5081 44.8268 27.1278 39.0822 27.1278 32.9785C27.1278 26.8748 29.5081 21.1302 33.8299 16.8084C38.1517 12.4866 43.8963 10.1063 50 10.1063C56.1037 10.1063 61.8483 12.4866 66.1701 16.8084C70.4919 21.1302 72.8722 26.8748 72.8722 32.9785C72.8722 39.0822 70.4919 44.8268 66.1701 49.1486C61.8483 53.4704 56.1037 55.8507 50 55.8507Z" fill="#65FFDC"/>
</svg>
