<svg width="547" height="271" xmlns="http://www.w3.org/2000/svg" xmlns:xlink="http://www.w3.org/1999/xlink" xml:space="preserve" overflow="hidden"><defs><clipPath id="clip0"><rect x="1308" y="1833" width="547" height="271"/></clipPath><clipPath id="clip1"><rect x="1502" y="1941" width="158" height="157"/></clipPath><clipPath id="clip2"><rect x="1502" y="1941" width="158" height="157"/></clipPath><clipPath id="clip3"><rect x="1502" y="1941" width="158" height="157"/></clipPath></defs><g clip-path="url(#clip0)" transform="translate(-1308 -1833)"><text font-family="Malgun Gothic,Malgun Gothic_MSFontService,sans-serif" font-weight="400" font-size="50" transform="matrix(1 0 0 1 1342 1928)">Q.<tspan font-size="50" x="82.5" y="0">주소</tspan><tspan font-size="50" x="183.333" y="0">(</tspan><tspan font-size="50" x="198.802" y="0">우편번호</tspan>)</text><g clip-path="url(#clip1)"><g clip-path="url(#clip2)"><g clip-path="url(#clip3)"><path d="M101.396 32.7083 111.208 32.7083 111.208 22.8958 91.5832 22.8958 91.5832 62.1457 101.396 62.1457Z" transform="matrix(1 0 0 1 1503 1941)"/><path d="M65.4166 107.937 26.1666 107.937 26.1666 68.6874C26.1666 57.8937 34.9979 49.0624 45.7916 49.0624 56.5853 49.0624 65.4166 57.8937 65.4166 68.6874L65.4166 107.937ZM111.208 39.2499 107.937 39.2499 107.937 68.6874 85.0415 68.6874 85.0415 39.2499 45.7916 39.2499C29.601 39.2499 16.3541 52.4968 16.3541 68.6874L16.3541 117.75 71.9582 117.75 71.9582 134.104 85.0415 134.104 85.0415 117.75 140.646 117.75 140.646 68.6874C140.646 52.4968 127.399 39.2499 111.208 39.2499Z" transform="matrix(1 0 0 1 1503 1941)"/></g></g></g></g></svg>