<svg width="565" height="264" xmlns="http://www.w3.org/2000/svg" xmlns:xlink="http://www.w3.org/1999/xlink" xml:space="preserve" overflow="hidden"><defs><clipPath id="clip0"><rect x="1924" y="771" width="565" height="264"/></clipPath></defs><g clip-path="url(#clip0)" transform="translate(-1924 -771)"><text font-family="Malgun Gothic,Malgun Gothic_MSFontService,sans-serif" font-weight="400" font-size="50" transform="matrix(1 0 0 1 1958.45 862)">Q.<tspan font-size="50" x="82.5" y="0">장답형</tspan><tspan font-size="50" x="159.844" y="60">가나다</tspan><tspan font-size="50" x="453.177" y="60">.</tspan></text><path d="M1958.45 927.337 2074.45 927.337 2190.45 927.337 2306.45 927.337 2422.45 927.337 2422.45 930.337 2306.45 930.337 2190.45 930.337 2074.45 930.337 1958.45 930.337Z" fill-rule="evenodd"/><text font-family="Malgun Gothic,Malgun Gothic_MSFontService,sans-serif" font-weight="400" font-size="50" transform="matrix(1 0 0 1 2118.29 983)">라마바<tspan font-size="50" x="293.333" y="0">.  </tspan></text><path d="M1958.45 988.337 2074.45 988.337 2190.45 988.337 2306.45 988.337 2422.45 988.337 2422.45 991.337 2306.45 991.337 2190.45 991.337 2074.45 991.337 1958.45 991.337Z" fill-rule="evenodd"/></g></svg>